<svg width="34" height="26" viewBox="0 0 34 26" fill="none" xmlns="http://www.w3.org/2000/svg">
<path d="M32.8748 8.67266C33.1262 8.47285 33.5 8.65977 33.5 8.97559V22.1562C33.5 23.8643 32.1143 25.25 30.4062 25.25H3.59375C1.88574 25.25 0.5 23.8643 0.5 22.1562V8.98203C0.5 8.65977 0.867383 8.4793 1.1252 8.6791C2.56895 9.80059 4.4832 11.225 11.0574 16.001C12.4174 16.9936 14.7119 19.0818 17 19.0689C19.301 19.0883 21.6406 16.9549 22.949 16.001C29.5232 11.225 31.4311 9.79414 32.8748 8.67266ZM17 17C18.4953 17.0258 20.648 15.118 21.7309 14.3316C30.2838 8.1248 30.9348 7.5834 32.907 6.03652C33.2809 5.74648 33.5 5.29531 33.5 4.81836V3.59375C33.5 1.88574 32.1143 0.5 30.4062 0.5H3.59375C1.88574 0.5 0.5 1.88574 0.5 3.59375V4.81836C0.5 5.29531 0.719141 5.74004 1.09297 6.03652C3.06523 7.57695 3.71621 8.1248 12.2691 14.3316C13.352 15.118 15.5047 17.0258 17 17Z" fill="white"/>
</svg>
