<svg width="30" height="30" viewBox="0 0 30 30" fill="none" xmlns="http://www.w3.org/2000/svg">
<path d="M6.96336 29.3744H0.976953V10.0964H6.96336V29.3744ZM3.96693 7.46674C2.05268 7.46674 0.5 5.88119 0.5 3.96693C0.5 3.04745 0.865265 2.16562 1.51544 1.51544C2.16562 0.865265 3.04745 0.5 3.96693 0.5C4.88642 0.5 5.76825 0.865265 6.41843 1.51544C7.0686 2.16562 7.43387 3.04745 7.43387 3.96693C7.43387 5.88119 5.88055 7.46674 3.96693 7.46674ZM29.3686 29.3744H23.395V19.99C23.395 17.7535 23.3499 14.8853 20.2826 14.8853C17.1702 14.8853 16.6932 17.3152 16.6932 19.8288V29.3744H10.7132V10.0964H16.4547V12.7261H16.5385C17.3377 11.2115 19.29 9.61303 22.2027 9.61303C28.2612 9.61303 29.375 13.6027 29.375 18.7847V29.3744H29.3686Z" fill="white"/>
</svg>
