<svg width="24" height="34" viewBox="0 0 24 34" fill="none" xmlns="http://www.w3.org/2000/svg">
<path d="M17.7508 11.5021C19.2756 11.5021 20.7379 10.9226 21.8161 9.89092C22.8943 8.85927 23.5 7.46005 23.5 6.00107C23.5 4.5421 22.8943 3.14288 21.8161 2.11123C20.7379 1.07958 19.2756 0.5 17.7508 0.5L6.25253 0.5C4.72865 0.5 3.26718 1.07924 2.18964 2.11028C1.1121 3.14133 0.506738 4.53973 0.506738 5.99785C0.506738 7.45597 1.1121 8.85437 2.18964 9.88542C3.26718 10.9165 4.72865 11.4957 6.25253 11.4957C4.72776 11.4957 3.26543 12.0753 2.18726 13.1069C1.10908 14.1386 0.50337 15.5378 0.50337 16.9968C0.50337 18.4558 1.10908 19.855 2.18726 20.8866C3.26543 21.9183 4.72776 22.4979 6.25253 22.4979C5.11545 22.4972 4.00371 22.8192 3.0579 23.4232C2.11209 24.0271 1.37468 24.8858 0.938921 25.8908C0.503165 26.8957 0.388636 28.0017 0.609815 29.069C0.830994 30.1362 1.37795 31.1167 2.18151 31.8865C2.98507 32.6563 4.00915 33.1808 5.12425 33.3937C6.23935 33.6066 7.39538 33.4983 8.44616 33.0825C9.49693 32.6667 10.3953 31.9621 11.0275 31.0578C11.6598 30.1535 11.9977 29.0902 11.9983 28.0021V11.5021H17.7508ZM17.7508 11.5021C16.6144 11.5021 15.5035 11.8246 14.5587 12.4287C13.6138 13.0328 12.8773 13.8915 12.4424 14.8961C12.0075 15.9007 11.8938 17.0061 12.1155 18.0726C12.3372 19.1391 12.8844 20.1187 13.688 20.8876C14.4915 21.6565 15.5153 22.1801 16.6299 22.3922C17.7445 22.6043 18.8998 22.4955 19.9497 22.0794C20.9996 21.6632 21.8969 20.9586 22.5283 20.0544C23.1596 19.1503 23.4966 18.0874 23.4966 17C23.4965 15.5419 22.891 14.1436 21.8135 13.1126C20.736 12.0816 19.2747 11.5023 17.7508 11.5021Z" fill="white"/>
</svg>
