<svg width="74" height="69" viewBox="0 0 74 69" fill="none" xmlns="http://www.w3.org/2000/svg">
<path d="M27.1497 1.72998C23.182 1.73014 19.2697 2.66128 15.7273 4.44855C12.1849 6.23581 9.1113 8.82932 6.7536 12.0206C4.39591 15.2118 2.81995 18.9118 2.15234 22.8229C1.48474 26.7341 1.74413 30.7473 2.90973 34.54V52.44H26.2997H27.1998C33.8371 52.3082 40.1581 49.5789 44.8055 44.8383C49.453 40.0976 52.0562 33.7236 52.0562 27.085C52.0562 20.4463 49.453 14.0723 44.8055 9.33167C40.1581 4.59103 33.8371 1.8618 27.1998 1.72998H27.1497Z" fill="#F5F5F5"/>
<path d="M26.2999 51.2901H26.4199H27.1999C32.2905 51.2798 37.2483 49.6645 41.3678 46.674C45.4874 43.6834 48.559 39.4699 50.1456 34.6328C51.7323 29.7958 51.7531 24.5815 50.2053 19.7319C48.6575 14.8824 45.6198 10.6444 41.5243 7.62092C37.4288 4.59744 32.4841 2.94242 27.3938 2.89137C22.3034 2.84032 17.3266 4.39583 13.1713 7.33656C9.01602 10.2773 5.89386 14.4535 4.24907 19.2711C2.60428 24.0886 2.52062 29.3022 4.00993 34.1701C4.04685 34.2933 4.06372 34.4216 4.05992 34.5501V51.2901H26.0599C26.1329 51.2804 26.2069 51.2804 26.2799 51.2901H26.2999ZM27.1999 53.5201H2.9099C2.61723 53.5201 2.33641 53.4046 2.12853 53.1986C1.92064 52.9926 1.80255 52.7128 1.79991 52.4201V34.7001C0.198034 29.3733 0.315599 23.6772 2.13591 18.421C3.95622 13.1649 7.38667 8.61607 11.9399 5.42091C16.4931 2.22576 21.9374 0.546814 27.4993 0.622573C33.0612 0.698331 38.4578 2.52499 42.9223 5.84297C47.3868 9.16095 50.6921 13.8015 52.3686 19.1053C54.0451 24.4091 54.0074 30.1063 52.261 35.3875C50.5147 40.6686 47.1484 45.2651 42.6405 48.5239C38.1326 51.7826 32.7123 53.5378 27.1499 53.5401L27.1999 53.5201Z" fill="#595959"/>
<path d="M27.15 7.38013C24.0654 7.37862 21.0235 8.10107 18.269 9.48944C15.5145 10.8778 13.1244 12.8933 11.2908 15.3738C9.45715 17.8542 8.23133 20.7304 7.7119 23.771C7.19246 26.8116 7.3939 29.9316 8.30003 32.8801V46.8001H26.47H27.17C32.3974 46.8001 37.4108 44.7235 41.1071 41.0272C44.8034 37.3308 46.8801 32.3175 46.8801 27.0901C46.8801 21.8627 44.8034 16.8494 41.1071 13.153C37.4108 9.45668 32.3974 7.38013 27.17 7.38013H27.15Z" fill="#595959"/>
<path d="M46.8597 16.6702C50.8266 16.6719 54.7378 17.6042 58.2789 19.3921C61.82 21.18 64.8923 23.7737 67.2488 26.9648C69.6054 30.1558 71.1805 33.8552 71.8476 37.7656C72.5147 41.676 72.2551 45.6883 71.0897 49.4802V67.3702H47.7197H46.8298C40.1065 67.3702 33.6586 64.6994 28.9046 59.9453C24.1506 55.1913 21.4797 48.7434 21.4797 42.0201C21.4797 35.2969 24.1506 28.8491 28.9046 24.095C33.6586 19.341 40.1065 16.6702 46.8298 16.6702H46.8597Z" fill="#F5F5F5"/>
<path d="M47.9701 66.2901H69.9701V49.5401C69.9445 49.4114 69.9445 49.2788 69.9701 49.1501C71.4675 44.2674 71.3851 39.0367 69.7347 34.2037C68.0843 29.3706 64.9502 25.1819 60.7792 22.2349C56.6081 19.2879 51.6132 17.733 46.5065 17.7918C41.3997 17.8507 36.4419 19.5203 32.3399 22.5626C28.2379 25.605 25.2011 29.8647 23.6625 34.7345C22.1239 39.6043 22.1621 44.8356 23.7715 49.6824C25.381 54.5293 28.4796 58.7443 32.6255 61.7264C36.7715 64.7086 41.7531 66.3058 46.8602 66.2901H47.7101H47.9701ZM71.0901 68.5001H46.8602C41.2973 68.4999 35.876 66.7465 31.3667 63.489C26.8574 60.2315 23.4894 55.6356 21.7414 50.3546C19.9934 45.0735 19.9543 39.3758 21.6296 34.0712C23.305 28.7667 26.6095 24.125 31.0737 20.8059C35.5379 17.4868 40.9347 15.6591 46.497 15.5826C52.0593 15.506 57.5043 17.1846 62.0582 20.3795C66.612 23.5745 70.0431 28.1234 71.8638 33.3799C73.6845 38.6364 73.8022 44.3329 72.2002 49.6601V67.3901C72.2002 67.5358 72.1714 67.6802 72.1156 67.8149C72.0599 67.9496 71.9781 68.0719 71.875 68.175C71.772 68.2781 71.6496 68.3598 71.5149 68.4156C71.3803 68.4714 71.2359 68.5001 71.0901 68.5001Z" fill="#595959"/>
<path d="M46.8602 22.29C49.9444 22.2917 52.9851 23.0168 55.7382 24.407C58.4913 25.7973 60.88 27.8138 62.7122 30.2947C64.5445 32.7757 65.7693 35.6518 66.2882 38.692C66.8071 41.7322 66.6057 44.8518 65.7002 47.8V61.71H46.8602C41.6328 61.71 36.6194 59.6335 32.9231 55.9371C29.2268 52.2408 27.1501 47.2275 27.1501 42.0001C27.1501 36.7726 29.2268 31.7593 32.9231 28.063C36.6194 24.3666 41.6328 22.29 46.8602 22.29Z" fill="#0B99FF"/>
<path d="M58.9596 40.72H34.2096C33.9347 40.6938 33.6794 40.5661 33.4936 40.3618C33.3078 40.1575 33.2048 39.8912 33.2048 39.6151C33.2048 39.3389 33.3078 39.0726 33.4936 38.8683C33.6794 38.664 33.9347 38.5362 34.2096 38.51H58.9596C59.2345 38.5362 59.4899 38.664 59.6757 38.8683C59.8615 39.0726 59.9644 39.3389 59.9644 39.6151C59.9644 39.8912 59.8615 40.1575 59.6757 40.3618C59.4899 40.5661 59.2345 40.6938 58.9596 40.72Z" fill="#F5F5F5"/>
<path d="M54.6899 49.65H39.0299C38.876 49.6647 38.7207 49.647 38.574 49.5981C38.4273 49.5493 38.2923 49.4703 38.1779 49.3663C38.0635 49.2622 37.9721 49.1354 37.9095 48.994C37.847 48.8526 37.8147 48.6997 37.8147 48.545C37.8147 48.3904 37.847 48.2375 37.9095 48.0961C37.9721 47.9546 38.0635 47.8279 38.1779 47.7238C38.2923 47.6198 38.4273 47.5407 38.574 47.4919C38.7207 47.443 38.876 47.4254 39.0299 47.4401H54.6899C54.8439 47.4254 54.9992 47.443 55.1459 47.4919C55.2926 47.5407 55.4275 47.6198 55.5419 47.7238C55.6563 47.8279 55.7477 47.9546 55.8103 48.0961C55.8729 48.2375 55.9052 48.3904 55.9052 48.545C55.9052 48.6997 55.8729 48.8526 55.8103 48.994C55.7477 49.1354 55.6563 49.2622 55.5419 49.3663C55.4275 49.4703 55.2926 49.5493 55.1459 49.5981C54.9992 49.647 54.8439 49.6647 54.6899 49.65Z" fill="#F5F5F5"/>
</svg>
