<svg width="32" height="26" viewBox="0 0 32 26" fill="none" xmlns="http://www.w3.org/2000/svg">
<path d="M12.4947 17.5607C12.4947 18.9078 11.7922 21.1121 10.1293 21.1121C8.46641 21.1121 7.76387 18.9078 7.76387 17.5607C7.76387 16.2137 8.46641 14.0094 10.1293 14.0094C11.7922 14.0094 12.4947 16.2137 12.4947 17.5607ZM31.4375 14.3059C31.4375 16.3619 31.2313 18.5404 30.3096 20.4289C27.8668 25.366 21.1508 25.25 16.3426 25.25C11.457 25.25 4.34141 25.424 1.80195 20.4289C0.860938 18.5598 0.5 16.3619 0.5 14.3059C0.5 11.6053 1.3959 9.05293 3.1748 6.98398C2.83965 5.96563 2.67852 4.8957 2.67852 3.83867C2.67852 2.45293 2.99434 1.75684 3.61953 0.5C6.53926 0.5 8.4084 1.08008 10.632 2.82031C12.5012 2.37559 14.4219 2.17578 16.349 2.17578C18.0893 2.17578 19.8424 2.3627 21.5311 2.76875C23.7225 1.04785 25.5916 0.5 28.4791 0.5C29.1107 1.75684 29.4201 2.45293 29.4201 3.83867C29.4201 4.8957 29.2525 5.94629 28.9238 6.94531C30.6963 9.03359 31.4375 11.6053 31.4375 14.3059ZM27.2932 17.5607C27.2932 14.7313 25.5723 12.2369 22.5559 12.2369C21.3377 12.2369 20.1711 12.4561 18.9465 12.6236C17.9861 12.7719 17.0258 12.8299 16.0396 12.8299C15.06 12.8299 14.0996 12.7719 13.1328 12.6236C11.9275 12.4561 10.748 12.2369 9.52344 12.2369C6.50703 12.2369 4.78613 14.7313 4.78613 17.5607C4.78613 23.2197 9.96816 24.0898 14.4799 24.0898H17.5865C22.1176 24.0898 27.2932 23.2262 27.2932 17.5607ZM21.9693 14.0094C20.3064 14.0094 19.6039 16.2137 19.6039 17.5607C19.6039 18.9078 20.3064 21.1121 21.9693 21.1121C23.6322 21.1121 24.3348 18.9078 24.3348 17.5607C24.3348 16.2137 23.6322 14.0094 21.9693 14.0094Z" fill="white"/>
</svg>
