<svg width="74" height="73" viewBox="0 0 74 73" fill="none" xmlns="http://www.w3.org/2000/svg">
<path d="M58.4124 36.5704V50.7604L43.5724 65.5904L42.2224 49.7304" fill="#F5F5F5"/>
<path d="M43.5725 66.7104C43.4429 66.7074 43.3147 66.6838 43.1925 66.6404C42.9946 66.5669 42.8217 66.4386 42.6942 66.2703C42.5666 66.102 42.4897 65.9009 42.4725 65.6905L41.1225 49.8304C41.0973 49.5387 41.189 49.2489 41.3775 49.0248C41.566 48.8007 41.8358 48.6606 42.1275 48.6354C42.4192 48.6102 42.709 48.7019 42.9331 48.8904C43.1572 49.0789 43.2973 49.3487 43.3225 49.6404L44.4625 63.1404L57.3025 50.3105V36.6004C57.3287 36.3255 57.4564 36.0702 57.6607 35.8844C57.865 35.6986 58.1313 35.5957 58.4075 35.5957C58.6836 35.5957 58.9499 35.6986 59.1542 35.8844C59.3586 36.0702 59.4863 36.3255 59.5125 36.6004V50.7904C59.5131 50.9351 59.4851 51.0785 59.4302 51.2123C59.3753 51.3462 59.2945 51.4678 59.1925 51.5704L44.3525 66.4104C44.1457 66.6183 43.8657 66.7368 43.5725 66.7404V66.7104Z" fill="#595959"/>
<path d="M36.4126 13.3304H22.2126L7.38257 28.1604L23.2526 29.5104" fill="#F5F5F5"/>
<path d="M23.2424 30.6004H23.1524L7.28239 29.2404C7.07386 29.223 6.87465 29.1464 6.70811 29.0197C6.54157 28.893 6.41464 28.7214 6.3422 28.5251C6.26976 28.3287 6.25479 28.1158 6.29911 27.9113C6.34343 27.7068 6.44517 27.5191 6.59239 27.3704L21.4224 12.6004C21.5225 12.4978 21.6423 12.4165 21.7746 12.3615C21.907 12.3065 22.0491 12.2789 22.1924 12.2804H36.4224C36.7141 12.2804 36.9939 12.3963 37.2002 12.6026C37.4065 12.8089 37.5224 13.0887 37.5224 13.3804C37.5224 13.6722 37.4065 13.952 37.2002 14.1583C36.9939 14.3646 36.7141 14.4804 36.4224 14.4804H22.6724L9.84239 27.3204L23.3424 28.4704C23.4871 28.4804 23.6284 28.5194 23.7577 28.5851C23.8871 28.6509 24.0018 28.742 24.0951 28.8531C24.1885 28.9641 24.2585 29.0929 24.3009 29.2316C24.3434 29.3703 24.3575 29.5161 24.3424 29.6604C24.3152 29.9336 24.1877 30.1871 23.9845 30.3718C23.7814 30.5565 23.517 30.6593 23.2424 30.6604V30.6004Z" fill="#595959"/>
<path d="M51.6528 34.6004C50.3835 35.8718 48.7657 36.7382 47.0039 37.0898C45.2421 37.4414 43.4156 37.2625 41.7556 36.5757C40.0955 35.8889 38.6765 34.7252 37.6781 33.2316C36.6797 31.7381 36.1467 29.9819 36.1467 28.1854C36.1467 26.3889 36.6797 24.6327 37.6781 23.1392C38.6765 21.6457 40.0955 20.4819 41.7556 19.7951C43.4156 19.1083 45.2421 18.9294 47.0039 19.281C48.7657 19.6326 50.3835 20.499 51.6528 21.7704C52.4955 22.6127 53.164 23.6128 53.6201 24.7135C54.0761 25.8142 54.3109 26.994 54.3109 28.1854C54.3109 29.3769 54.0761 30.5567 53.6201 31.6574C53.164 32.7581 52.4955 33.7581 51.6528 34.6004Z" fill="#F5F5F5"/>
<path d="M45.2222 20.1804C44.1754 20.177 43.1384 20.3821 42.1718 20.7839C41.2051 21.1857 40.3282 21.776 39.5922 22.5205C38.1053 24.0189 37.2709 26.0444 37.2709 28.1554C37.2709 30.2665 38.1053 32.292 39.5922 33.7905C40.519 34.7325 41.6646 35.4303 42.9269 35.8215C44.1891 36.2127 45.5286 36.2852 46.8256 36.0324C48.1227 35.7796 49.3369 35.2094 50.3599 34.3728C51.3828 33.5362 52.1826 32.4593 52.6877 31.2381C53.1928 30.017 53.3876 28.6898 53.2546 27.375C53.1217 26.0603 52.665 24.7989 51.9256 23.7037C51.1862 22.6085 50.1869 21.7135 49.0172 21.0987C47.8475 20.4839 46.5436 20.1684 45.2222 20.1804ZM45.2222 38.3404C43.8846 38.343 42.5599 38.079 41.3254 37.5639C40.0909 37.0489 38.9714 36.293 38.0322 35.3404C36.1252 33.4316 35.054 30.8437 35.054 28.1455C35.054 25.4472 36.1252 22.8593 38.0322 20.9505C39.2164 19.7668 40.6743 18.8935 42.2766 18.408C43.8789 17.9224 45.5763 17.8395 47.2183 18.1667C48.8603 18.4939 50.3963 19.2211 51.6901 20.2837C52.984 21.3464 53.9957 22.7118 54.6357 24.2589C55.2758 25.806 55.5244 27.4872 55.3594 29.1533C55.1945 30.8195 54.6211 32.4192 53.6902 33.8108C52.7592 35.2024 51.4994 36.3429 50.0223 37.1313C48.5453 37.9197 46.8965 38.3316 45.2222 38.3305V38.3404Z" fill="#595959"/>
<path d="M56.8523 39.7804C41.9323 54.7004 24.6323 61.5904 18.2123 55.1704C11.7923 48.7504 18.6823 31.4504 33.6023 16.5304C39.0029 11.3359 45.4937 7.41068 52.6023 5.04044C58.9386 2.80597 65.5628 1.49259 72.2723 1.14044C71.9276 7.84998 70.6175 14.4748 68.3823 20.8104C66.0067 27.9188 62.0783 34.4091 56.8823 39.8104L56.8523 39.7804Z" fill="#F5F5F5"/>
<path d="M71.0726 2.31042C64.8943 2.77359 58.8029 4.04097 52.9526 6.08044C46.0113 8.38543 39.678 12.2237 34.4226 17.3104C27.3126 24.4304 21.8226 32.3104 18.9726 39.4404C16.2826 46.2104 16.3026 51.6504 19.0326 54.3904C19.8429 55.1205 20.7914 55.6808 21.8219 56.0381C22.8525 56.3953 23.9442 56.5423 25.0326 56.4704C33.3026 56.4704 45.5026 49.6104 56.1126 39.0004C61.2024 33.7357 65.0407 27.392 67.3426 20.4404C69.3847 14.5874 70.6521 8.49233 71.1126 2.31042H71.0726ZM24.9926 58.6804C23.6136 58.7577 22.2332 58.5557 20.9341 58.0866C19.6351 57.6175 18.4441 56.8909 17.4326 55.9504C14.0026 52.5204 13.8026 46.3604 16.8826 38.6304C19.8826 31.1904 25.5026 23.0704 32.8226 15.7504C38.3225 10.4285 44.9495 6.41263 52.2126 4.00042C58.6498 1.70359 65.3871 0.356128 72.2126 0.000424451C72.3608 -0.00371396 72.5083 0.0224472 72.646 0.0772677C72.7838 0.132088 72.9089 0.214434 73.0138 0.319272C73.1186 0.42411 73.201 0.549222 73.2558 0.686978C73.3106 0.824734 73.3367 0.972214 73.3326 1.12042C72.9911 7.94316 71.6606 14.6802 69.3826 21.1204C66.9785 28.4137 62.9624 35.0719 57.6326 40.6004C46.6326 51.6004 33.8226 58.7204 24.9926 58.7204V58.6804Z" fill="#595959"/>
<path d="M54.0522 36.9904C42.7222 48.3204 29.5822 53.5504 24.7122 48.6704C19.8422 43.7904 25.0622 30.6704 36.3922 19.3304C47.7222 7.99044 65.7422 7.60043 65.7422 7.60043C65.7422 7.60043 65.3922 25.6004 54.0522 36.9504V36.9904Z" fill="#0B99FF"/>
<path d="M51.6528 34.6004C50.3835 35.8718 48.7657 36.7382 47.0039 37.0898C45.2421 37.4414 43.4156 37.2625 41.7556 36.5757C40.0955 35.8889 38.6765 34.7252 37.6781 33.2316C36.6797 31.7381 36.1467 29.9819 36.1467 28.1854C36.1467 26.3889 36.6797 24.6327 37.6781 23.1392C38.6765 21.6457 40.0955 20.4819 41.7556 19.7951C43.4156 19.1083 45.2421 18.9294 47.0039 19.281C48.7657 19.6326 50.3835 20.499 51.6528 21.7704C52.4955 22.6127 53.164 23.6128 53.6201 24.7135C54.0761 25.8142 54.3109 26.994 54.3109 28.1854C54.3109 29.3769 54.0761 30.5567 53.6201 31.6574C53.164 32.7581 52.4955 33.7581 51.6528 34.6004Z" fill="#F5F5F5"/>
<path d="M45.2222 20.1804C44.1754 20.177 43.1384 20.3821 42.1718 20.7839C41.2051 21.1857 40.3282 21.776 39.5922 22.5205C38.1053 24.0189 37.2709 26.0444 37.2709 28.1554C37.2709 30.2665 38.1053 32.292 39.5922 33.7905C40.519 34.7325 41.6646 35.4303 42.9269 35.8215C44.1891 36.2127 45.5286 36.2852 46.8256 36.0324C48.1227 35.7796 49.3369 35.2094 50.3599 34.3728C51.3828 33.5362 52.1826 32.4593 52.6877 31.2381C53.1928 30.017 53.3876 28.6898 53.2546 27.375C53.1217 26.0603 52.665 24.7989 51.9256 23.7037C51.1862 22.6085 50.1869 21.7135 49.0172 21.0987C47.8475 20.4839 46.5436 20.1684 45.2222 20.1804ZM45.2222 38.3404C43.8846 38.343 42.5599 38.079 41.3254 37.5639C40.0909 37.0489 38.9714 36.293 38.0322 35.3404C36.1252 33.4316 35.054 30.8437 35.054 28.1455C35.054 25.4472 36.1252 22.8593 38.0322 20.9505C39.2164 19.7668 40.6743 18.8935 42.2766 18.408C43.8789 17.9224 45.5763 17.8395 47.2183 18.1667C48.8603 18.4939 50.3963 19.2211 51.6901 20.2837C52.984 21.3464 53.9957 22.7118 54.6357 24.2589C55.2758 25.806 55.5244 27.4872 55.3594 29.1533C55.1945 30.8195 54.6211 32.4192 53.6902 33.8108C52.7592 35.2024 51.4994 36.3429 50.0223 37.1313C48.5453 37.9197 46.8965 38.3316 45.2222 38.3305V38.3404Z" fill="#595959"/>
<path d="M68.3525 20.8104L52.5725 5.04044C58.9088 2.80597 65.533 1.49259 72.2425 1.14044C71.8978 7.84998 70.5877 14.4748 68.3525 20.8104Z" fill="#F5F5F5"/>
<path d="M54.6226 5.51043L67.8726 18.7704C69.5848 13.4292 70.6589 7.9041 71.0726 2.31042C65.4827 2.72775 59.9613 3.80183 54.6226 5.51043ZM68.3526 21.9104C68.2077 21.9121 68.0641 21.8847 67.9301 21.8297C67.7961 21.7747 67.6745 21.6933 67.5726 21.5904L51.8026 5.82043C51.6751 5.69064 51.5812 5.53175 51.5289 5.35751C51.4766 5.18328 51.4676 4.99895 51.5026 4.82043C51.5419 4.63834 51.6281 4.46967 51.7526 4.33111C51.8772 4.19256 52.0357 4.0889 52.2125 4.03042C58.6498 1.73359 65.3871 0.386127 72.2125 0.0304232C72.3608 0.0262848 72.5083 0.052446 72.646 0.107266C72.7838 0.162087 72.9089 0.244433 73.0138 0.349271C73.1186 0.454109 73.2009 0.579221 73.2558 0.716977C73.3106 0.854733 73.3367 1.00221 73.3325 1.15042C72.9911 7.97316 71.6606 14.7101 69.3826 21.1504C69.3207 21.3271 69.2147 21.485 69.0747 21.6092C68.9347 21.7335 68.7653 21.8199 68.5825 21.8604C68.5028 21.8701 68.4223 21.8701 68.3426 21.8604L68.3526 21.9104Z" fill="#595959"/>
<path d="M25.0026 62.7804L10.9026 48.6704L16.5926 42.9904L30.6926 57.0804L25.0026 62.7804Z" fill="#F5F5F5"/>
<path d="M12.4222 48.6805L24.9622 61.2204L29.0922 57.0904L16.5922 44.6004L12.4222 48.6805ZM24.9622 63.8904C24.8165 63.8914 24.6723 63.8626 24.5381 63.8059C24.404 63.7491 24.2829 63.6656 24.1822 63.5605L10.0722 49.4604C9.86978 49.2509 9.75527 48.9718 9.7522 48.6805C9.7532 48.3887 9.86802 48.1088 10.0722 47.9004L15.7622 42.2104C15.8644 42.1076 15.986 42.0261 16.1198 41.9704C16.2537 41.9147 16.3972 41.886 16.5422 41.886C16.6871 41.886 16.8307 41.9147 16.9645 41.9704C17.0984 42.0261 17.22 42.1076 17.3222 42.2104L31.4322 56.3105C31.535 56.4127 31.6166 56.5342 31.6722 56.6681C31.7279 56.8019 31.7565 56.9454 31.7565 57.0904C31.7565 57.2354 31.7279 57.3789 31.6722 57.5128C31.6166 57.6466 31.535 57.7682 31.4322 57.8705L25.7822 63.6004C25.6804 63.7043 25.5591 63.7869 25.4252 63.8435C25.2913 63.9002 25.1476 63.9297 25.0022 63.9305L24.9622 63.8904Z" fill="#595959"/>
<path d="M24.0624 63.4604C24.0624 63.4604 23.0624 71.4604 18.4624 71.8504C18.4624 71.8504 18.8424 65.0604 15.3324 64.8504C15.3324 64.8504 14.7824 71.9205 9.79242 71.6905C8.34242 71.6205 8.79245 67.4004 7.95245 66.2304C6.05245 63.5604 2.31245 65.4604 1.95245 63.8904C0.952454 58.9904 7.76245 58.4504 7.76245 58.4504C7.54245 54.9404 1.76245 55.2204 1.76245 55.2204C2.15245 50.6404 10.1524 49.6104 10.1524 49.6104" fill="#F5F5F5"/>
<path d="M18.4225 72.9604C18.272 72.9607 18.123 72.9301 17.9848 72.8705C17.8465 72.8109 17.722 72.7236 17.6189 72.6139C17.5157 72.5043 17.4363 72.3746 17.3853 72.233C17.3343 72.0913 17.313 71.9407 17.3225 71.7904C17.3225 70.7904 17.2725 67.6605 16.1725 66.4405C15.5625 69.2905 13.7325 72.9704 9.70254 72.7904C7.92254 72.7104 7.6425 70.5704 7.4125 68.7904C7.36892 68.1089 7.23443 67.4363 7.01254 66.7904C6.31254 65.7904 5.26251 65.7004 3.85251 65.6504C2.79251 65.6504 1.18251 65.5704 0.852507 64.0304C0.681804 63.346 0.665038 62.6323 0.803373 61.9406C0.941709 61.2489 1.23169 60.5965 1.65249 60.0304C2.85782 58.6693 4.49083 57.7593 6.2825 57.4504C5.1425 56.0904 1.86254 56.2004 1.82254 56.2004C1.66641 56.2067 1.51071 56.1796 1.36587 56.121C1.22103 56.0623 1.09034 55.9735 0.982512 55.8605C0.869945 55.7493 0.783711 55.6144 0.73007 55.4656C0.676429 55.3167 0.656743 55.1579 0.672514 55.0005C1.13251 49.6005 9.6725 48.4404 10.0325 48.4004C10.1796 48.381 10.3292 48.3918 10.472 48.4322C10.6148 48.4725 10.748 48.5417 10.8631 48.6353C10.9783 48.7289 11.0731 48.8451 11.1418 48.9767C11.2104 49.1082 11.2516 49.2524 11.2625 49.4004C11.2995 49.6906 11.2205 49.9837 11.0426 50.2159C10.8647 50.4481 10.6023 50.6006 10.3125 50.6404C8.60253 50.8604 4.51252 51.8704 3.24252 54.0804C5.71252 54.2904 8.67251 55.3405 8.85251 58.3105C8.86938 58.5969 8.77467 58.8788 8.58822 59.0969C8.40178 59.315 8.1381 59.4525 7.85251 59.4804C6.97251 59.5504 4.45251 60.0404 3.42251 61.4204C3.21387 61.7046 3.06767 62.0297 2.99356 62.3744C2.91945 62.7191 2.91912 63.0756 2.99252 63.4204C3.22252 63.4204 3.6125 63.4204 3.9125 63.4204C5.3125 63.4704 7.42252 63.5305 8.80252 65.4905C9.29867 66.4147 9.57257 67.4419 9.60251 68.4905C9.6662 69.1692 9.80028 69.8394 10.0025 70.4905C13.7025 70.4905 14.1925 64.7204 14.1925 64.6705C14.218 64.3839 14.3548 64.1187 14.5735 63.9317C14.7922 63.7448 15.0755 63.651 15.3625 63.6704C18.3625 63.8504 19.3625 67.4104 19.5325 70.2804C21.7025 68.9904 22.7125 64.9304 22.9325 63.2804C22.9461 63.1325 22.9893 62.9888 23.0595 62.8579C23.1296 62.727 23.2254 62.6115 23.341 62.5182C23.4567 62.425 23.5899 62.3559 23.7327 62.315C23.8755 62.2742 24.0251 62.2624 24.1725 62.2804C24.32 62.2928 24.4635 62.3348 24.5944 62.4039C24.7253 62.473 24.8408 62.5679 24.9342 62.6827C25.0275 62.7976 25.0968 62.93 25.1377 63.0722C25.1787 63.2145 25.1905 63.3635 25.1725 63.5104C25.1725 63.8704 23.9725 72.4105 18.5625 72.8605L18.4225 72.9604Z" fill="#595959"/>
</svg>
