<svg width="200" height="213" viewBox="0 0 200 213" fill="none" xmlns="http://www.w3.org/2000/svg">
<mask id="mask0_46_2358" style="mask-type:alpha" maskUnits="userSpaceOnUse" x="9" y="30" width="182" height="183">
<path d="M99.9998 212.53C150.193 212.53 190.883 171.841 190.883 121.647C190.883 71.4538 150.193 30.7641 99.9998 30.7641C49.8065 30.7641 9.1167 71.4538 9.1167 121.647C9.1167 171.841 49.8065 212.53 99.9998 212.53Z" fill="white"/>
</mask>
<g mask="url(#mask0_46_2358)">
<path d="M100 212.53C150.193 212.53 190.883 171.841 190.883 121.647C190.883 71.4538 150.193 30.7641 100 30.7641C49.8067 30.7641 9.11694 71.4538 9.11694 121.647C9.11694 171.841 49.8067 212.53 100 212.53Z" fill="#E6E6E6"/>
<path d="M190.883 30.7641H9.1167V212.53H190.883V30.7641Z" fill="#0B99FF"/>
</g>
<mask id="mask1_46_2358" style="mask-type:alpha" maskUnits="userSpaceOnUse" x="0" y="0" width="200" height="213">
<path d="M9.11688 121.647C9.11688 171.841 49.8066 212.53 100 212.53C150.193 212.53 190.883 171.841 190.883 121.647H199.971V0.469696H0.0285645V121.647H9.11688Z" fill="white"/>
</mask>
<g mask="url(#mask1_46_2358)">
<mask id="mask2_46_2358" style="mask-type:alpha" maskUnits="userSpaceOnUse" x="24" y="27" width="152" height="186">
<path d="M118.176 137.257V151.184H121.206C151.322 151.184 175.736 175.598 175.736 205.714V212.53H24.2639V205.714C24.2639 175.598 48.6778 151.184 78.7938 151.184H81.8232V137.257C68.7683 131.055 59.3844 118.381 57.8188 103.381C53.4073 102.757 50.0141 98.9659 50.0141 94.3823V83.7792C50.0141 79.276 53.2894 75.5377 57.5877 74.8166V70.1468C57.5877 46.7232 76.5763 27.7346 99.9999 27.7346C123.423 27.7346 142.412 46.7232 142.412 70.1468V74.8166C146.71 75.5377 149.986 79.276 149.986 83.7792V94.3823C149.986 98.9659 146.592 102.757 142.181 103.381C140.615 118.381 131.231 131.055 118.176 137.257Z" fill="white"/>
</mask>
<g mask="url(#mask2_46_2358)">
<path d="M118.176 137.257V151.184H121.206C151.322 151.184 175.736 175.598 175.736 205.714V212.53H24.2639V205.714C24.2639 175.598 48.6778 151.184 78.7938 151.184H81.8232V137.257C68.7683 131.055 59.3844 118.381 57.8188 103.381C53.4073 102.757 50.0141 98.9659 50.0141 94.3823V83.7792C50.0141 79.276 53.2894 75.5377 57.5877 74.8166V70.1468C57.5877 46.7232 76.5763 27.7346 99.9999 27.7346C123.423 27.7346 142.412 46.7232 142.412 70.1468V74.8166C146.71 75.5377 149.986 79.276 149.986 83.7792V94.3823C149.986 98.9659 146.592 102.757 142.181 103.381C140.615 118.381 131.231 131.055 118.176 137.257Z" fill="#D0C6AC"/>
<path d="M224.207 27.7346H24.2639V239.795H224.207V27.7346Z" fill="#EDB98A"/>
<path fill-rule="evenodd" clip-rule="evenodd" d="M142.412 87.566V104.985C142.412 128.409 123.424 147.397 100 147.397C76.5767 147.397 57.5881 128.409 57.5881 104.985V87.566V98.9264C57.5881 122.35 76.5767 141.339 100 141.339C123.424 141.339 142.412 122.35 142.412 98.9264V87.566Z" fill="black" fill-opacity="0.1"/>
</g>
<mask id="mask3_46_2358" style="mask-type:alpha" maskUnits="userSpaceOnUse" x="24" y="139" width="152" height="74">
<path fill-rule="evenodd" clip-rule="evenodd" d="M81.8232 139.12C68.2523 140.639 57.7997 144.786 57.5909 155.46C38.0073 163.732 24.2639 183.118 24.2639 205.714V212.53H175.736V205.714C175.736 183.118 161.992 163.732 142.409 155.46C142.2 144.786 131.747 140.639 118.176 139.12V153.456C118.176 163.495 110.039 171.633 99.9999 171.633C89.9612 171.633 81.8232 163.495 81.8232 153.456V139.12Z" fill="white"/>
</mask>
<g mask="url(#mask3_46_2358)">
<path fill-rule="evenodd" clip-rule="evenodd" d="M81.8232 139.12C68.2523 140.639 57.7997 144.786 57.5909 155.46C38.0073 163.732 24.2639 183.118 24.2639 205.714V212.53H175.736V205.714C175.736 183.118 161.992 163.732 142.409 155.46C142.2 144.786 131.747 140.639 118.176 139.12V153.456C118.176 163.495 110.039 171.633 99.9999 171.633C89.9612 171.633 81.8232 163.495 81.8232 153.456V139.12Z" fill="#2E447F"/>
<path d="M199.971 129.221H0.0285645V212.53H199.971V129.221Z" fill="#595959"/>
<path fill-rule="evenodd" clip-rule="evenodd" d="M77.2795 175.979V212.53H71.978V173.261C73.6471 174.253 75.4216 175.163 77.2795 175.979ZM128.023 173.261V203.821C128.023 205.285 126.836 206.471 125.372 206.471C123.908 206.471 122.721 205.285 122.721 203.821V175.979C124.579 175.163 126.354 174.253 128.023 173.261Z" fill="#F4F4F4"/>
<path fill-rule="evenodd" clip-rule="evenodd" d="M68.918 138.858C57.5191 141.014 49.6355 145.309 49.6355 153.689C49.6355 168.619 74.6569 180.721 99.9999 180.721C125.343 180.721 150.364 168.619 150.364 153.689C150.364 145.309 142.481 141.014 131.082 138.858C137.962 141.395 142.412 145.66 142.412 152.757C142.412 168.201 121.341 180.721 99.9999 180.721C78.6584 180.721 57.5878 168.201 57.5878 152.757C57.5878 145.66 62.0373 141.395 68.918 138.858Z" fill="black" fill-opacity="0.16"/>
</g>
<mask id="mask4_46_2358" style="mask-type:alpha" maskUnits="userSpaceOnUse" x="85" y="111" width="30" height="16">
<path fill-rule="evenodd" clip-rule="evenodd" d="M85.6995 113.413C86.5007 120.602 92.5976 126.191 100 126.191C107.425 126.191 113.537 120.567 114.308 113.347C114.37 112.765 113.721 111.802 112.908 111.802C101.627 111.802 92.9853 111.802 87.1907 111.802C86.3726 111.802 85.6193 112.694 85.6995 113.413Z" fill="white"/>
</mask>
<g mask="url(#mask4_46_2358)">
<path fill-rule="evenodd" clip-rule="evenodd" d="M85.6992 113.413C86.5004 120.602 92.5974 126.191 99.9998 126.191C107.425 126.191 113.537 120.567 114.308 113.347C114.37 112.765 113.721 111.802 112.907 111.802C101.627 111.802 92.9851 111.802 87.1905 111.802C86.3723 111.802 85.6191 112.694 85.6992 113.413Z" fill="black" fill-opacity="0.7"/>
<path d="M108.331 103.471H92.4262C90.3348 103.471 88.6394 105.166 88.6394 107.257V111.802C88.6394 113.893 90.3348 115.588 92.4262 115.588H108.331C110.422 115.588 112.118 113.893 112.118 111.802V107.257C112.118 105.166 110.422 103.471 108.331 103.471Z" fill="white"/>
<path d="M96.214 136.794C100.815 136.794 104.545 133.065 104.545 128.463C104.545 123.862 100.815 120.133 96.214 120.133C91.613 120.133 87.8831 123.862 87.8831 128.463C87.8831 133.065 91.613 136.794 96.214 136.794Z" fill="#FF4F6D"/>
<path d="M103.787 136.794C108.389 136.794 112.118 133.065 112.118 128.463C112.118 123.862 108.389 120.133 103.787 120.133C99.1864 120.133 95.4565 123.862 95.4565 128.463C95.4565 133.065 99.1864 136.794 103.787 136.794Z" fill="#FF4F6D"/>
</g>
<path fill-rule="evenodd" clip-rule="evenodd" d="M90.9114 98.9264C90.9114 102.273 94.9804 104.985 99.9997 104.985C105.019 104.985 109.088 102.273 109.088 98.9264" fill="black" fill-opacity="0.16"/>
<path fill-rule="evenodd" clip-rule="evenodd" d="M69.8271 85.6327C71.2256 82.7557 74.3745 80.7498 78.0349 80.7498C81.6824 80.7498 84.822 82.7415 86.2279 85.6023C86.6455 86.4521 86.0512 87.1476 85.4518 86.6322C83.5954 85.0363 80.9592 84.0396 78.0349 84.0396C75.2021 84.0396 72.6396 84.9749 70.7945 86.4842C70.1199 87.0361 69.4181 86.4742 69.8271 85.6327Z" fill="black" fill-opacity="0.6"/>
<path fill-rule="evenodd" clip-rule="evenodd" d="M113.754 85.6327C115.152 82.7557 118.301 80.7498 121.961 80.7498C125.609 80.7498 128.749 82.7415 130.154 85.6023C130.572 86.4521 129.978 87.1476 129.378 86.6322C127.522 85.0363 124.886 84.0396 121.961 84.0396C119.129 84.0396 116.566 84.9749 114.721 86.4842C114.046 87.0361 113.345 86.4742 113.754 85.6327Z" fill="black" fill-opacity="0.6"/>
<path d="M69.4255 75.5684C72.3905 71.3964 80.5191 69.0569 87.521 70.7763C88.3334 70.9758 89.1537 70.479 89.3532 69.6665C89.5527 68.8541 89.0559 68.0338 88.2434 67.8343C80.112 65.8374 70.6993 68.5465 66.9562 73.8135C66.4716 74.4954 66.6315 75.4411 67.3134 75.9257C67.9953 76.4103 68.9409 76.2503 69.4255 75.5684Z" fill="black" fill-opacity="0.6"/>
<path d="M130.574 75.5684C127.609 71.3964 119.481 69.0569 112.479 70.7763C111.667 70.9758 110.846 70.479 110.647 69.6665C110.447 68.8541 110.944 68.0338 111.757 67.8343C119.888 65.8374 129.301 68.5465 133.044 73.8135C133.528 74.4954 133.368 75.4411 132.687 75.9257C132.005 76.4103 131.059 76.2503 130.574 75.5684Z" fill="black" fill-opacity="0.6"/>
<mask id="mask5_46_2358" style="mask-type:alpha" maskUnits="userSpaceOnUse" x="-21" y="-11" width="201" height="213">
<path d="M179.523 -10.1333H-20.4202V201.927H179.523V-10.1333Z" fill="white"/>
</mask>
<g mask="url(#mask5_46_2358)">
<mask id="mask6_46_2358" style="mask-type:alpha" maskUnits="userSpaceOnUse" x="56" y="74" width="88" height="69">
<path fill-rule="evenodd" clip-rule="evenodd" d="M113.2 129.349C111.296 131.086 109.268 131.867 106.705 131.321C106.264 131.227 104.466 127.884 100 127.884C95.5344 127.884 93.7365 131.227 93.2952 131.321C90.7321 131.867 88.7042 131.086 86.8005 129.349C83.2219 126.082 80.2458 121.578 82.0341 116.663C82.9661 114.102 84.4818 111.289 87.2393 110.473C90.1837 109.602 94.3177 110.472 97.285 109.877C98.2463 109.684 99.2964 109.341 100 108.772C100.704 109.341 101.754 109.684 102.715 109.877C105.683 110.472 109.817 109.602 112.761 110.473C115.519 111.289 117.034 114.102 117.967 116.663C119.755 121.578 116.779 126.082 113.2 129.349ZM142.474 74.691C139.891 81.053 140.888 88.9733 140.41 95.6516C140.022 101.08 138.881 109.216 134.061 112.721C131.596 114.514 127.109 117.527 123.889 116.687C121.672 116.108 121.435 109.749 118.522 107.369C115.217 104.669 111.09 103.483 106.929 103.666C105.134 103.745 101.503 103.726 100 105.107C98.4975 103.726 94.8667 103.745 93.0713 103.666C88.9102 103.483 84.7835 104.669 81.4788 107.369C78.5653 109.749 78.329 116.108 76.1119 116.687C72.8913 117.527 68.4047 114.514 65.9396 112.721C61.1193 109.216 59.9785 101.08 59.5898 95.6516C59.112 88.9733 60.1095 81.053 57.5267 74.691C56.2702 74.691 57.0989 86.9063 57.0989 86.9063V102.323C57.1229 113.902 64.3552 131.232 80.3908 137.849C84.3124 139.468 93.1957 142.096 100 142.096C106.805 142.096 115.688 139.718 119.61 138.1C135.645 131.482 142.878 113.902 142.902 102.323V86.9063C142.902 86.9063 143.73 74.691 142.474 74.691Z" fill="white"/>
</mask>
<g mask="url(#mask6_46_2358)">
<path fill-rule="evenodd" clip-rule="evenodd" d="M113.2 129.349C111.296 131.086 109.268 131.867 106.705 131.321C106.264 131.227 104.466 127.884 100 127.884C95.5344 127.884 93.7365 131.227 93.2952 131.321C90.7321 131.867 88.7042 131.086 86.8005 129.349C83.2219 126.082 80.2458 121.578 82.0341 116.663C82.9661 114.102 84.4818 111.289 87.2393 110.473C90.1837 109.602 94.3177 110.472 97.285 109.877C98.2463 109.684 99.2964 109.341 100 108.772C100.704 109.341 101.754 109.684 102.715 109.877C105.683 110.472 109.817 109.602 112.761 110.473C115.519 111.289 117.034 114.102 117.967 116.663C119.755 121.578 116.779 126.082 113.2 129.349ZM142.474 74.691C139.891 81.053 140.888 88.9733 140.41 95.6516C140.022 101.08 138.881 109.216 134.061 112.721C131.596 114.514 127.109 117.527 123.889 116.687C121.672 116.108 121.435 109.749 118.522 107.369C115.217 104.669 111.09 103.483 106.929 103.666C105.134 103.745 101.503 103.726 100 105.107C98.4975 103.726 94.8667 103.745 93.0713 103.666C88.9102 103.483 84.7835 104.669 81.4788 107.369C78.5653 109.749 78.329 116.108 76.1119 116.687C72.8913 117.527 68.4047 114.514 65.9396 112.721C61.1193 109.216 59.9785 101.08 59.5898 95.6516C59.112 88.9733 60.1095 81.053 57.5267 74.691C56.2702 74.691 57.0989 86.9063 57.0989 86.9063V102.323C57.1229 113.902 64.3552 131.232 80.3908 137.849C84.3124 139.468 93.1957 142.096 100 142.096C106.805 142.096 115.688 139.718 119.61 138.1C135.645 131.482 142.878 113.902 142.902 102.323V86.9063C142.902 86.9063 143.73 74.691 142.474 74.691Z" fill="#331B0C"/>
<path d="M212.09 54.9996H12.1467V239.795H212.09V54.9996Z" fill="#4A312C"/>
</g>
<mask id="mask7_46_2358" style="mask-type:alpha" maskUnits="userSpaceOnUse" x="55" y="0" width="90" height="76">
<path fill-rule="evenodd" clip-rule="evenodd" d="M86.3225 21.9312C85.5756 22.099 84.8425 22.2746 84.124 22.4559C72.6939 25.3399 65.9322 33.5295 60.1307 45.6448C57.2822 51.5937 55.5936 58.6285 55.3339 65.2099C55.2319 67.7939 55.5803 70.4612 56.2765 72.9493C56.5319 73.8626 57.909 77.0289 58.2871 74.4705C58.4129 73.6187 57.9523 72.4437 57.9078 71.5386C57.8493 70.3509 57.9121 69.1477 57.9931 67.9618C58.1444 65.7446 58.5397 63.5695 59.2431 61.4559C60.2483 58.4356 61.5278 55.1608 63.4864 52.6125C68.3342 46.3056 71.8002 33.1919 100.001 32.0295C128.201 30.8671 136.921 51.562 139.522 55.9847C142.6 61.2211 141.184 67.6531 142.124 73.3283C142.482 75.4865 143.294 75.4382 143.739 73.5079C144.494 70.2288 144.851 66.8222 144.611 63.4512C144.066 55.8414 141.274 35.8428 125.985 26.982C121.863 24.5932 117.752 22.9539 113.721 21.89C116.039 19.6393 117.42 16.8042 117.42 13.7235C117.42 6.40368 109.621 0.469757 100.001 0.469757C90.3802 0.469757 82.5813 6.40368 82.5813 13.7235C82.5813 16.823 83.9797 19.674 86.3225 21.9312Z" fill="white"/>
</mask>
<g mask="url(#mask7_46_2358)">
<path fill-rule="evenodd" clip-rule="evenodd" d="M86.3222 21.9312C85.5753 22.099 84.8422 22.2746 84.1238 22.4559C72.6936 25.3399 65.9319 33.5295 60.1305 45.6448C57.282 51.5937 55.5934 58.6285 55.3336 65.2099C55.2317 67.7939 55.5801 70.4612 56.2763 72.9493C56.5317 73.8626 57.9088 77.0289 58.2869 74.4705C58.4127 73.6187 57.9521 72.4437 57.9075 71.5386C57.8491 70.3509 57.9119 69.1477 57.9928 67.9618C58.1442 65.7446 58.5394 63.5695 59.2429 61.4559C60.248 58.4356 61.5275 55.1608 63.4861 52.6125C68.3339 46.3056 71.7999 33.1919 100 32.0295C128.201 30.8671 136.921 51.562 139.521 55.9847C142.6 61.2211 141.184 67.6531 142.124 73.3283C142.482 75.4865 143.294 75.4382 143.739 73.5079C144.494 70.2288 144.851 66.8222 144.61 63.4512C144.066 55.8414 141.274 35.8428 125.985 26.982C121.863 24.5932 117.752 22.9539 113.721 21.89C116.038 19.6393 117.42 16.8042 117.42 13.7235C117.42 6.40368 109.621 0.469757 100 0.469757C90.38 0.469757 82.5811 6.40368 82.5811 13.7235C82.5811 16.823 83.9794 19.674 86.3222 21.9312Z" fill="#28354B"/>
<path d="M199.215 0.469757H-0.728271V212.53H199.215V0.469757Z" fill="#4A312C"/>
</g>
</g>
</g>
</svg>
