<svg width="62" height="73" viewBox="0 0 62 73" fill="none" xmlns="http://www.w3.org/2000/svg">
<path d="M35.9301 69.73H26.0901V55.24H35.9301V69.73Z" fill="#F5F5F5"/>
<path d="M27.1898 68.63H34.8198V56.35H27.1898V68.63ZM35.9297 70.83H26.0897C25.7971 70.83 25.5162 70.7145 25.3083 70.5085C25.1005 70.3025 24.9824 70.0227 24.9797 69.73V55.2501C24.9824 54.9574 25.1005 54.6776 25.3083 54.4716C25.5162 54.2656 25.7971 54.15 26.0897 54.15H35.9297C36.2215 54.15 36.5013 54.2659 36.7076 54.4722C36.9139 54.6785 37.0297 54.9583 37.0297 55.2501V69.73C37.0297 70.0218 36.9139 70.3016 36.7076 70.5079C36.5013 70.7142 36.2215 70.83 35.9297 70.83Z" fill="#595959"/>
<path d="M60.6903 51.78H1.33032V20.63H60.6903V51.78Z" fill="#F5F5F5"/>
<path d="M2.43004 50.6801H59.59V21.74H2.43004V50.6801ZM60.67 52.89H1.32005C1.02831 52.89 0.748511 52.7742 0.542221 52.5679C0.335931 52.3616 0.220016 52.0818 0.220016 51.79V20.64C0.218695 20.4948 0.246199 20.3506 0.300888 20.216C0.355576 20.0814 0.436404 19.9589 0.538681 19.8557C0.640957 19.7525 0.76266 19.6706 0.896774 19.6147C1.03089 19.5588 1.17475 19.53 1.32005 19.53H60.67C60.9644 19.53 61.2468 19.647 61.4549 19.8551C61.6631 20.0633 61.78 20.3457 61.78 20.64V51.79C61.7774 52.0827 61.6593 52.3625 61.4514 52.5685C61.2435 52.7745 60.9627 52.89 60.67 52.89Z" fill="#595959"/>
<path d="M60.6903 51.78H1.33032V28.52H60.6903V51.78Z" fill="#F5F5F5"/>
<path d="M2.42999 50.6801H59.59V29.6801H2.42999V50.6801ZM60.67 52.89H1.32001C1.02827 52.89 0.748465 52.7742 0.542175 52.5679C0.335885 52.3616 0.219971 52.0818 0.219971 51.7901V28.5301C0.219971 28.2383 0.335885 27.9585 0.542175 27.7523C0.748465 27.546 1.02827 27.4301 1.32001 27.4301H60.67C60.9627 27.43 61.2435 27.5456 61.4514 27.7516C61.6592 27.9577 61.7773 28.2374 61.78 28.5301V51.7901C61.7773 52.0827 61.6592 52.3625 61.4514 52.5685C61.2435 52.7745 60.9627 52.8901 60.67 52.89Z" fill="#595959"/>
<path d="M60.6903 58.76H1.33032V51.78H60.6903V58.76Z" fill="#F5F5F5"/>
<path d="M2.42999 57.66H59.59V52.89H2.42999V57.66ZM60.67 59.8701H1.32001C1.02735 59.8674 0.747572 59.7493 0.541565 59.5414C0.335557 59.3335 0.219959 59.0527 0.219971 58.76V51.76C0.219959 51.4673 0.335557 51.1865 0.541565 50.9786C0.747572 50.7708 1.02735 50.6527 1.32001 50.65H60.67C60.9644 50.65 61.2467 50.767 61.4549 50.9752C61.6631 51.1833 61.78 51.4656 61.78 51.76V58.76C61.78 59.0544 61.6631 59.3368 61.4549 59.5449C61.2467 59.7531 60.9644 59.8701 60.67 59.8701Z" fill="#595959"/>
<path d="M47.9501 71.51H14.0701V66.27H47.9501V71.51Z" fill="#F5F5F5"/>
<path d="M15.1702 70.41H46.8502V67.41H15.1702V70.41ZM47.9503 72.6201H14.0703C13.7776 72.6201 13.4968 72.5045 13.2889 72.2985C13.081 72.0925 12.9628 71.8127 12.9602 71.52V66.27C12.9628 65.9774 13.081 65.6976 13.2889 65.4916C13.4968 65.2856 13.7776 65.17 14.0703 65.17H47.9503C48.2429 65.17 48.5237 65.2856 48.7316 65.4916C48.9395 65.6976 49.0576 65.9774 49.0602 66.27V71.52C49.0576 71.8127 48.9395 72.0925 48.7316 72.2985C48.5237 72.5045 48.2429 72.6201 47.9503 72.6201Z" fill="#595959"/>
<path d="M57.4399 48.84H3.88989V32.11H57.4399V48.84Z" fill="#0B99FF"/>
<path d="M41.4998 23.95L48.0798 30.52V44.29L40.0999 37.55" fill="#F5F5F5"/>
<path d="M48.0798 45.41C47.82 45.4091 47.5688 45.3171 47.3698 45.15L39.3698 38.41C39.147 38.2204 39.0087 37.95 38.9852 37.6584C38.9618 37.3668 39.0552 37.0778 39.2448 36.855C39.4345 36.6322 39.7048 36.4939 39.9964 36.4705C40.288 36.447 40.577 36.5404 40.7998 36.73L46.9698 41.93V30.99L40.7098 24.73C40.6074 24.6276 40.5261 24.506 40.4707 24.3721C40.4153 24.2383 40.3867 24.0949 40.3867 23.95C40.3867 23.8052 40.4153 23.6617 40.4707 23.5279C40.5261 23.394 40.6074 23.2724 40.7098 23.17C40.8122 23.0676 40.9339 22.9863 41.0677 22.9309C41.2015 22.8754 41.345 22.8469 41.4898 22.8469C41.6347 22.8469 41.7781 22.8754 41.9119 22.9309C42.0458 22.9863 42.1674 23.0676 42.2698 23.17L48.8498 29.75C49.0586 29.9562 49.1772 30.2366 49.1798 30.53V44.29C49.1776 44.4999 49.1164 44.705 49.0032 44.8818C48.8901 45.0586 48.7295 45.2001 48.5398 45.29C48.3909 45.3527 48.2314 45.3867 48.0698 45.39L48.0798 45.41Z" fill="#595959"/>
<path d="M20.52 23.37L13.9299 29.95V43.71L21.9199 36.98" fill="#F5F5F5"/>
<path d="M13.9299 44.8301C13.77 44.8308 13.6122 44.793 13.4699 44.7201C13.2787 44.6321 13.1169 44.4911 13.0034 44.3138C12.89 44.1366 12.8297 43.9305 12.8299 43.7201V29.9501C12.8284 29.8068 12.856 29.6647 12.911 29.5323C12.966 29.4 13.0473 29.2801 13.1499 29.1801L19.7399 22.6001C19.8415 22.4961 19.9628 22.4134 20.0967 22.357C20.2307 22.3006 20.3745 22.2715 20.5199 22.2715C20.6653 22.2715 20.8092 22.3006 20.9431 22.357C21.0771 22.4134 21.1984 22.4961 21.2999 22.6001C21.4027 22.7023 21.4843 22.8238 21.54 22.9577C21.5956 23.0916 21.6243 23.2351 21.6243 23.3801C21.6243 23.5251 21.5956 23.6686 21.54 23.8025C21.4843 23.9363 21.4027 24.0579 21.2999 24.1601L15.0399 30.4101V41.3401L21.2099 36.1401C21.4338 35.9544 21.7216 35.8639 22.0115 35.8882C22.3013 35.9125 22.5702 36.0496 22.7599 36.2701C22.9463 36.4956 23.037 36.785 23.0127 37.0766C22.9884 37.3681 22.851 37.6386 22.6299 37.8301L14.6299 44.5601C14.4328 44.7315 14.1811 44.8273 13.9199 44.8301H13.9299Z" fill="#595959"/>
<path d="M37.4397 26.16C37.4397 27.3467 37.0878 28.5068 36.4285 29.4935C35.7692 30.4802 34.8321 31.2492 33.7358 31.7033C32.6394 32.1574 31.433 32.2762 30.2692 32.0447C29.1053 31.8132 28.0361 31.2418 27.197 30.4027C26.3579 29.5636 25.7865 28.4945 25.555 27.3306C25.3235 26.1667 25.4423 24.9603 25.8964 23.8639C26.3505 22.7676 27.1196 21.8305 28.1063 21.1712C29.093 20.5119 30.253 20.16 31.4397 20.16C33.031 20.16 34.5571 20.7922 35.6823 21.9174C36.8075 23.0426 37.4397 24.5687 37.4397 26.16Z" fill="#F5F5F5"/>
<path d="M31.4801 21.3101C30.5209 21.3101 29.5832 21.5946 28.7856 22.1275C27.988 22.6604 27.3664 23.4179 26.9993 24.3041C26.6322 25.1903 26.5362 26.1655 26.7233 27.1063C26.9104 28.0471 27.3724 28.9113 28.0507 29.5896C28.729 30.2679 29.5932 30.7298 30.534 30.9169C31.4748 31.104 32.4499 31.008 33.3362 30.6409C34.2224 30.2738 34.9799 29.6522 35.5128 28.8546C36.0457 28.057 36.3301 27.1193 36.3301 26.1601C36.3301 24.8738 35.8191 23.6402 34.9096 22.7306C34 21.8211 32.7664 21.3101 31.4801 21.3101ZM31.4801 33.2201C30.0838 33.2201 28.7189 32.806 27.5578 32.0303C26.3968 31.2545 25.4919 30.1519 24.9576 28.8619C24.4232 27.5718 24.2834 26.1523 24.5558 24.7828C24.8282 23.4132 25.5006 22.1553 26.488 21.1679C27.4753 20.1806 28.7333 19.5082 30.1028 19.2358C31.4723 18.9633 32.8918 19.1032 34.1819 19.6375C35.4719 20.1719 36.5746 21.0768 37.3503 22.2378C38.1261 23.3988 38.5401 24.7638 38.5401 26.1601C38.5375 28.0317 37.7928 29.8259 36.4694 31.1494C35.146 32.4728 33.3518 33.2175 31.4801 33.2201Z" fill="#595959"/>
<path d="M42.2701 26.1601C42.2701 40.0001 37.4402 51.2201 31.4802 51.2201C25.5202 51.2201 20.6702 40.0001 20.6702 26.1601C20.7688 21.2472 21.9574 16.4176 24.1501 12.0201C26.0497 8.0479 28.5117 4.37014 31.4601 1.1001C34.4138 4.3682 36.8793 8.04625 38.7802 12.0201C40.9694 16.4184 42.1547 21.248 42.2502 26.1601H42.2701Z" fill="#F5F5F5"/>
<path d="M31.4801 2.76004C28.9816 5.73496 26.859 9.00624 25.1601 12.5C23.0322 16.7446 21.884 21.4127 21.8001 26.16C21.8001 40.49 26.8001 50.16 31.4801 50.16C36.1601 50.16 41.1601 40.53 41.1601 26.16C41.0749 21.4128 39.9268 16.7451 37.8001 12.5C36.1102 9.00119 33.9869 5.72884 31.4801 2.76004ZM31.4801 52.32C24.8201 52.32 19.5901 40.83 19.5901 26.16C19.6777 21.0838 20.9009 16.0917 23.1701 11.55C25.1109 7.4681 27.6376 3.69155 30.6701 0.340024C30.7711 0.231784 30.8934 0.145679 31.0294 0.0871552C31.1654 0.0286315 31.312 -0.0010337 31.4601 2.74975e-05C31.6095 -0.000618454 31.7576 0.0291869 31.8951 0.0876435C32.0327 0.1461 32.1569 0.231978 32.2601 0.340024C35.2947 3.69203 37.8246 7.4684 39.7701 11.55C42.0447 16.0897 43.2683 21.0831 43.3501 26.16C43.3501 40.83 38.1301 52.32 31.4601 52.32H31.4801Z" fill="#595959"/>
<path d="M39.67 26.16C39.67 36.67 36 45.16 31.47 45.16C26.94 45.16 23.28 36.64 23.28 26.16C23.28 15.68 31.47 7.16003 31.47 7.16003C31.47 7.16003 39.67 15.68 39.67 26.16Z" fill="#0B99FF"/>
<path d="M37.4397 26.16C37.4397 27.3467 37.0878 28.5068 36.4285 29.4935C35.7692 30.4802 34.8321 31.2492 33.7358 31.7033C32.6394 32.1574 31.433 32.2762 30.2692 32.0447C29.1053 31.8132 28.0361 31.2418 27.197 30.4027C26.3579 29.5636 25.7865 28.4945 25.555 27.3306C25.3235 26.1667 25.4423 24.9603 25.8964 23.8639C26.3505 22.7676 27.1196 21.8305 28.1063 21.1712C29.093 20.5119 30.253 20.16 31.4397 20.16C33.031 20.16 34.5571 20.7922 35.6823 21.9174C36.8075 23.0426 37.4397 24.5687 37.4397 26.16Z" fill="#F5F5F5"/>
<path d="M31.4801 21.3101C30.5209 21.3101 29.5832 21.5946 28.7856 22.1275C27.988 22.6604 27.3664 23.4179 26.9993 24.3041C26.6322 25.1903 26.5362 26.1655 26.7233 27.1063C26.9104 28.0471 27.3724 28.9113 28.0507 29.5896C28.729 30.2679 29.5932 30.7298 30.534 30.9169C31.4748 31.104 32.4499 31.008 33.3362 30.6409C34.2224 30.2738 34.9799 29.6522 35.5128 28.8546C36.0457 28.057 36.3301 27.1193 36.3301 26.1601C36.3301 24.8738 35.8191 23.6402 34.9096 22.7306C34 21.8211 32.7664 21.3101 31.4801 21.3101ZM31.4801 33.2201C30.0838 33.2201 28.7189 32.806 27.5578 32.0303C26.3968 31.2545 25.4919 30.1519 24.9576 28.8619C24.4232 27.5718 24.2834 26.1523 24.5558 24.7828C24.8282 23.4132 25.5006 22.1553 26.488 21.1679C27.4753 20.1806 28.7333 19.5082 30.1028 19.2358C31.4723 18.9633 32.8918 19.1032 34.1819 19.6375C35.4719 20.1719 36.5746 21.0768 37.3503 22.2378C38.1261 23.3988 38.5401 24.7638 38.5401 26.1601C38.5375 28.0317 37.7928 29.8259 36.4694 31.1494C35.146 32.4728 33.3518 33.2175 31.4801 33.2201Z" fill="#595959"/>
<path d="M38.8002 12.0201H24.1702C26.0697 8.0479 28.5317 4.37014 31.4802 1.1001C34.4338 4.3682 36.8993 8.04625 38.8002 12.0201Z" fill="#F5F5F5"/>
<path d="M25.9601 10.92H36.9601C35.413 8.01299 33.5627 5.27776 31.4401 2.76004C29.3199 5.27955 27.4697 8.01452 25.9201 10.92H25.9601ZM38.8001 13.13H24.1701C23.9828 13.1318 23.7983 13.0857 23.6338 12.9962C23.4694 12.9066 23.3305 12.7766 23.2303 12.6183C23.1302 12.4601 23.0721 12.279 23.0616 12.092C23.051 11.9051 23.0884 11.7185 23.1701 11.55C25.1109 7.4681 27.6376 3.69155 30.6701 0.340024C30.7711 0.231784 30.8934 0.145679 31.0294 0.0871552C31.1654 0.0286315 31.312 -0.0010337 31.4601 2.74975e-05C31.6095 -0.000618454 31.7576 0.0291869 31.8951 0.0876435C32.0327 0.1461 32.1569 0.231978 32.2601 0.340024C35.2721 3.66801 37.788 7.41328 39.7301 11.46C39.8337 11.6285 39.889 11.8222 39.8901 12.02C39.8901 12.3144 39.7731 12.5968 39.565 12.8049C39.3568 13.0131 39.0745 13.13 38.7801 13.13H38.8001Z" fill="#595959"/>
<path d="M38.1603 51.36V46.3201H25.0803V51.36H38.1603Z" fill="#F5F5F5"/>
<path d="M26.1797 50.26H37.0598V47.41H26.1797V50.24V50.26ZM38.1797 52.47H25.0797C24.7871 52.4674 24.5073 52.3493 24.3013 52.1414C24.0953 51.9335 23.9797 51.6527 23.9797 51.36V46.36C23.9797 46.0683 24.0957 45.7885 24.3019 45.5822C24.5082 45.3759 24.788 45.26 25.0797 45.26H38.1597C38.4511 45.2631 38.7302 45.3776 38.9398 45.58C39.0418 45.6826 39.1225 45.8043 39.1774 45.9381C39.2323 46.072 39.2603 46.2153 39.2598 46.36V51.36C39.2598 51.6527 39.1442 51.9335 38.9382 52.1414C38.7322 52.3493 38.4524 52.4674 38.1597 52.47H38.1797Z" fill="#595959"/>
</svg>
